<?xml version="1.0" encoding="UTF-8" standalone="no"?>
<svg width="188px" height="94px" viewBox="0 0 188 94" version="1.1" xmlns="http://www.w3.org/2000/svg" xmlns:xlink="http://www.w3.org/1999/xlink" xmlns:sketch="http://www.bohemiancoding.com/sketch/ns">
    <!-- Generator: Sketch 3.4.3 (16618) - http://www.bohemiancoding.com/sketch -->
    <title>Rectangle 11 + black218 + Rectangle 11 + black218</title>
    <desc>Created with Sketch.</desc>
    <defs></defs>
    <g id="Welcome" stroke="none" stroke-width="1" fill="none" fill-rule="evenodd" sketch:type="MSPage">
        <g id="Desktop" sketch:type="MSArtboardGroup" transform="translate(-318.000000, -389.000000)">
            <g id="Rectangle-11-+-black218-+-Rectangle-11-+-black218" sketch:type="MSLayerGroup" transform="translate(318.000000, 389.000000)">
                <g id="Rectangle-11-+-black218" sketch:type="MSShapeGroup">
                    <rect id="Rectangle-11" fill="#FFFFFF" x="0" y="0" width="94" height="94" rx="8"></rect>
                    <g id="black218" transform="translate(13.000000, 20.000000)" fill="#0A0F23">
                        <g id="Capa_1">
                            <g id="Group">
                                <path d="M62.8954543,53.8022733 C64.4458881,53.8022733 65.7893219,53.2929179 66.9313908,52.2871652 L47.3898645,32.8430709 C46.9210151,33.1771174 46.4665669,33.5019436 46.0372892,33.8108213 C44.5748899,34.8828599 43.3879897,35.7194089 42.4765886,36.3188484 C41.5653128,36.9196585 40.3528663,37.5320562 38.8393745,38.1572875 C37.3248808,38.7832664 35.9139498,39.095259 34.6050787,39.095259 L34.5667592,39.095259 L34.5284398,39.095259 C33.2194434,39.095259 31.8085124,38.783391 30.294144,38.1572875 C28.7797756,37.5320562 27.5673291,36.9196585 26.6569298,36.3188484 C25.745654,35.7194089 24.5593799,34.8829845 23.0962293,33.8108213 C22.6884906,33.5134066 22.2362964,33.1870852 21.7474108,32.8378378 L2.20212766,52.2871652 C3.3440714,53.2929179 4.68838174,53.8022733 6.23869027,53.8022733 L62.8954543,53.8022733 L62.8954543,53.8022733 Z" id="Shape"></path>
                                <path d="M3.88791833,20.8457544 C2.42564428,19.8757613 1.12892015,18.7648482 0,17.5135135 L0,47.0961228 L17.2238276,29.9588303 C13.7780853,27.5653085 9.33841742,24.5311053 3.88791833,20.8457544 L3.88791833,20.8457544 Z" id="Shape"></path>
                                <path d="M64.7509461,20.8457544 C59.5083236,24.3763549 55.0525014,27.4157912 51.3829787,29.9656832 L68.5999188,47.0968704 L68.5999188,17.5135135 C67.4960441,18.7396795 66.2132201,19.849845 64.7509461,20.8457544 L64.7509461,20.8457544 Z" id="Shape"></path>
                                <path d="M62.8146697,0 L6.15803085,0 C4.18145009,0 2.66182214,0.664105749 1.5972686,1.99094667 C0.531838475,3.31841058 -7.10542736e-15,4.97855036 -7.10542736e-15,6.96949703 C-7.10542736e-15,8.57767956 0.705778584,10.3201784 2.11670962,12.197492 C3.52764065,14.074058 5.02898548,15.5480488 6.61999274,16.620212 C7.49219782,17.2333573 10.1224628,19.0527329 14.5107877,22.0777159 C16.8797042,23.7110672 18.9398113,25.1347205 20.7101434,26.3632539 C22.219127,27.4093762 23.5204846,28.3153261 24.594931,29.0671486 C24.7182795,29.1532456 24.9122559,29.2912998 25.1697223,29.4744585 C25.4470998,29.6726934 25.7981107,29.9242562 26.2311452,30.2353766 C27.0650309,30.8354392 27.7577858,31.320498 28.3095354,31.6910516 C28.8605336,32.0617297 29.528118,32.4757679 30.3112868,32.9355334 C31.0938294,33.3946759 31.8319165,33.7399362 32.5246715,33.9695697 C33.2175517,34.1990787 33.8589637,34.314207 34.4490327,34.314207 L34.4873521,34.314207 L34.5256715,34.314207 C35.1156152,34.314207 35.7571525,34.1990787 36.4501579,33.9695697 C37.1427877,33.7399362 37.8802486,33.3954235 38.6634174,32.9355334 C39.4458348,32.4757679 40.1125426,32.0608576 40.665294,31.6910516 C41.2170436,31.320498 41.9097985,30.8355638 42.7438094,30.2353766 C43.1759673,29.9242562 43.5269782,29.6725688 43.8043557,29.4750815 C44.0619474,29.2911752 44.2557985,29.1539932 44.3798984,29.0671486 C45.2169147,28.4876447 46.5212777,27.5854327 48.2749546,26.3738447 C51.4659855,24.1678424 56.1654991,20.9209509 62.3932813,16.620212 C64.2662995,15.3185398 65.8311343,13.7477366 67.0887877,11.9100451 C68.3441869,10.0723536 68.9735771,8.14470255 68.9735771,6.12771496 C68.9735771,4.44253105 68.3633466,3.00056185 67.1455154,1.7995646 C65.9263067,0.60006253 64.4825662,0 62.8146697,0 L62.8146697,0 Z" id="Shape"></path>
                            </g>
                        </g>
                    </g>
                </g>
                <g id="Rectangle-11-+-black218" transform="translate(94.000000, 0.000000)" sketch:type="MSShapeGroup">
                    <rect id="Rectangle-11" fill="#0A0F23" x="0" y="0" width="94" height="94" rx="8"></rect>
                    <g id="black218" transform="translate(13.000000, 20.000000)" fill="#FFFFFF">
                        <g id="Capa_1" transform="translate(0.000000, 0.000000)">
                            <g id="Group" transform="translate(0.000000, 0.000000)">
                                <path d="M62.8954543,53.8022733 C64.4458881,53.8022733 65.7893219,53.2929179 66.9313908,52.2871652 L47.3898645,32.8430709 C46.9210151,33.1771174 46.4665669,33.5019436 46.0372892,33.8108213 C44.5748899,34.8828599 43.3879897,35.7194089 42.4765886,36.3188484 C41.5653128,36.9196585 40.3528663,37.5320562 38.8393745,38.1572875 C37.3248808,38.7832664 35.9139498,39.095259 34.6050787,39.095259 L34.5667592,39.095259 L34.5284398,39.095259 C33.2194434,39.095259 31.8085124,38.783391 30.294144,38.1572875 C28.7797756,37.5320562 27.5673291,36.9196585 26.6569298,36.3188484 C25.745654,35.7194089 24.5593799,34.8829845 23.0962293,33.8108213 C22.6884906,33.5134066 22.2362964,33.1870852 21.7474108,32.8378378 L2.20212766,52.2871652 C3.3440714,53.2929179 4.68838174,53.8022733 6.23869027,53.8022733 L62.8954543,53.8022733 L62.8954543,53.8022733 Z" id="Shape"></path>
                                <path d="M3.88791833,20.8457544 C2.42564428,19.8757613 1.12892015,18.7648482 0,17.5135135 L0,47.0961228 L17.2238276,29.9588303 C13.7780853,27.5653085 9.33841742,24.5311053 3.88791833,20.8457544 L3.88791833,20.8457544 Z" id="Shape"></path>
                                <path d="M64.7509461,20.8457544 C59.5083236,24.3763549 55.0525014,27.4157912 51.3829787,29.9656832 L68.5999188,47.0968704 L68.5999188,17.5135135 C67.4960441,18.7396795 66.2132201,19.849845 64.7509461,20.8457544 L64.7509461,20.8457544 Z" id="Shape"></path>
                                <path d="M62.8146697,3.55271368e-15 L6.15803085,3.55271368e-15 C4.18145009,3.55271368e-15 2.66182214,0.664105749 1.5972686,1.99094667 C0.531838475,3.31841058 -7.10542736e-15,4.97855036 -7.10542736e-15,6.96949703 C-7.10542736e-15,8.57767956 0.705778584,10.3201784 2.11670962,12.197492 C3.52764065,14.074058 5.02898548,15.5480488 6.61999274,16.620212 C7.49219782,17.2333573 10.1224628,19.0527329 14.5107877,22.0777159 C16.8797042,23.7110672 18.9398113,25.1347205 20.7101434,26.3632539 C22.219127,27.4093762 23.5204846,28.3153261 24.594931,29.0671486 C24.7182795,29.1532456 24.9122559,29.2912998 25.1697223,29.4744585 C25.4470998,29.6726934 25.7981107,29.9242562 26.2311452,30.2353766 C27.0650309,30.8354392 27.7577858,31.320498 28.3095354,31.6910516 C28.8605336,32.0617297 29.528118,32.4757679 30.3112868,32.9355334 C31.0938294,33.3946759 31.8319165,33.7399362 32.5246715,33.9695697 C33.2175517,34.1990787 33.8589637,34.314207 34.4490327,34.314207 L34.4873521,34.314207 L34.5256715,34.314207 C35.1156152,34.314207 35.7571525,34.1990787 36.4501579,33.9695697 C37.1427877,33.7399362 37.8802486,33.3954235 38.6634174,32.9355334 C39.4458348,32.4757679 40.1125426,32.0608576 40.665294,31.6910516 C41.2170436,31.320498 41.9097985,30.8355638 42.7438094,30.2353766 C43.1759673,29.9242562 43.5269782,29.6725688 43.8043557,29.4750815 C44.0619474,29.2911752 44.2557985,29.1539932 44.3798984,29.0671486 C45.2169147,28.4876447 46.5212777,27.5854327 48.2749546,26.3738447 C51.4659855,24.1678424 56.1654991,20.9209509 62.3932813,16.620212 C64.2662995,15.3185398 65.8311343,13.7477366 67.0887877,11.9100451 C68.3441869,10.0723536 68.9735771,8.14470255 68.9735771,6.12771496 C68.9735771,4.44253105 68.3633466,3.00056185 67.1455154,1.7995646 C65.9263067,0.60006253 64.4825662,3.55271368e-15 62.8146697,3.55271368e-15 L62.8146697,3.55271368e-15 Z" id="Shape"></path>
                            </g>
                        </g>
                    </g>
                </g>
            </g>
        </g>
    </g>
</svg>
