<?xml version="1.0" encoding="UTF-8" standalone="no"?>
<svg width="174px" height="94px" viewBox="0 0 174 94" version="1.1" xmlns="http://www.w3.org/2000/svg" xmlns:xlink="http://www.w3.org/1999/xlink" xmlns:sketch="http://www.bohemiancoding.com/sketch/ns">
    <!-- Generator: Sketch 3.4.3 (16618) - http://www.bohemiancoding.com/sketch -->
    <title>linkedin12 + linkedin12</title>
    <desc>Created with Sketch.</desc>
    <defs></defs>
    <g id="Welcome" stroke="none" stroke-width="1" fill="none" fill-rule="evenodd" sketch:type="MSPage">
        <g id="Desktop" sketch:type="MSArtboardGroup" transform="translate(-318.000000, -501.000000)" fill="#FFFFFF">
            <g id="linkedin12-+-linkedin12" sketch:type="MSLayerGroup" transform="translate(318.000000, 501.000000)">
                <g id="linkedin12" sketch:type="MSShapeGroup">
                    <g id="Capa_1">
                        <path d="M87.0589403,0 L6.94543062,0 C3.10927128,0 0,3.01442179 0,6.73496965 L0,87.263282 C0,90.9840484 3.11036402,94.0010927 6.94543062,94.0010927 L87.0589403,94.0010927 C90.8942255,94.0010927 94,90.9820815 94,87.263282 L94,6.73496965 C94,3.01551453 90.8942255,0 87.0589403,0 L87.0589403,0 Z M28.4981203,78.6853036 L14.2953921,78.6853036 L14.2953921,36.2449635 L28.4981203,36.2449635 L28.4981203,78.6853036 L28.4981203,78.6853036 Z M21.3981768,30.4469058 L21.3026716,30.4469058 C16.5398721,30.4469058 13.4524555,27.1896781 13.4524555,23.1118055 C13.4524555,18.9517592 16.6305692,15.7828245 21.4877811,15.7828245 C26.3454302,15.7828245 29.3334077,18.950885 29.4278201,23.1118055 C29.4278201,27.1905523 26.3465229,30.4469058 21.3981768,30.4469058 L21.3981768,30.4469058 Z M79.6947732,78.6853036 L65.4966346,78.6853036 L65.4966346,55.9782476 C65.4966346,50.2726353 63.4394496,46.3794352 58.3049013,46.3794352 C54.3769521,46.3794352 52.0452718,49.0059356 51.0213781,51.541739 C50.6419801,52.4473987 50.5480048,53.7140984 50.5480048,54.9790497 L50.5480048,78.6844294 L36.3524888,78.6844294 C36.3524888,78.6844294 36.5382539,40.2247084 36.3524888,36.2443079 L50.5501903,36.2443079 L50.5501903,42.2611314 C52.4349415,39.3699702 55.8029727,35.2457656 63.3426332,35.2457656 C72.6877123,35.2457656 79.6947732,41.308047 79.6947732,54.3498522 L79.6947732,78.6853036 L79.6947732,78.6853036 Z M50.4584005,42.395975 C50.4826592,42.3561994 50.516534,42.3083376 50.5501903,42.261787 L50.5501903,42.395975 L50.4584005,42.395975 L50.4584005,42.395975 Z" id="LinkedIn__x28_alt_x29_"></path>
                    </g>
                </g>
                <g id="linkedin12" transform="translate(107.000000, 15.000000)" sketch:type="MSShapeGroup">
                    <g id="Capa_1">
                        <path d="M15.4981203,63.6853036 L1.29539214,63.6853036 L1.29539214,21.2449635 L15.4981203,21.2449635 L15.4981203,63.6853036 Z M8.39817676,15.4469058 L8.30267162,15.4469058 C3.53987208,15.4469058 0.452455518,12.1896781 0.452455518,8.1118055 C0.452455518,3.95175919 3.63056918,0.782824514 8.48778112,0.782824514 C13.3454302,0.782824514 16.3334077,3.950885 16.4278201,8.1118055 C16.4278201,12.1905523 13.3465229,15.4469058 8.39817676,15.4469058 Z M66.6947732,63.6853036 L52.4966346,63.6853036 L52.4966346,40.9782476 C52.4966346,35.2726353 50.4394496,31.3794352 45.3049013,31.3794352 C41.3769521,31.3794352 39.0452718,34.0059356 38.0213781,36.541739 C37.6419801,37.4473987 37.5480048,38.7140984 37.5480048,39.9790497 L37.5480048,63.6844294 L23.3524888,63.6844294 C23.3524888,63.6844294 23.5382539,25.2247084 23.3524888,21.2443079 L37.5501903,21.2443079 L37.5501903,27.2611314 C39.4349415,24.3699702 42.8029727,20.2457656 50.3426332,20.2457656 C59.6877123,20.2457656 66.6947732,26.308047 66.6947732,39.3498522 L66.6947732,63.6853036 Z M37.4584005,27.395975 C37.4826592,27.3561994 37.516534,27.3083376 37.5501903,27.261787 L37.5501903,27.395975 L37.4584005,27.395975 Z" id="LinkedIn__x28_alt_x29_"></path>
                    </g>
                </g>
            </g>
        </g>
    </g>
</svg>
