<?xml version="1.0" encoding="UTF-8" standalone="no"?>
<svg width="172px" height="95px" viewBox="0 0 172 95" version="1.1" xmlns="http://www.w3.org/2000/svg" xmlns:xlink="http://www.w3.org/1999/xlink" xmlns:sketch="http://www.bohemiancoding.com/sketch/ns">
    <!-- Generator: Sketch 3.4.3 (16618) - http://www.bohemiancoding.com/sketch -->
    <title>twitter2 + twitter2</title>
    <desc>Created with Sketch.</desc>
    <defs></defs>
    <g id="Welcome" stroke="none" stroke-width="1" fill="none" fill-rule="evenodd" sketch:type="MSPage">
        <g id="Desktop" sketch:type="MSArtboardGroup" transform="translate(-317.000000, -614.000000)" fill="#FFFFFF">
            <g id="twitter2-+-twitter2" sketch:type="MSLayerGroup" transform="translate(317.000000, 614.000000)">
                <g id="twitter2" sketch:type="MSShapeGroup">
                    <g id="Capa_1">
                        <g id="Group">
                            <path d="M77.091037,0 L17.7901643,0 C7.96400411,0 0,7.96400411 0,17.7901643 L0,77.091037 C0,86.9171971 7.96400411,94.8812012 17.7901643,94.8812012 L77.091037,94.8812012 C86.9171971,94.8812012 94.8812012,86.9170021 94.8812012,77.091037 L94.8812012,17.7901643 C94.8813963,7.96400411 86.9171971,0 77.091037,0 L77.091037,0 Z M71.0424435,36.7901643 L71.0779466,38.3023614 C71.0779466,53.7442505 59.3305236,71.5346099 37.8456982,71.5346099 C31.2514887,71.5346099 25.1137474,69.6014476 19.9427823,66.2863963 C20.8561088,66.3931006 21.7869918,66.4524025 22.7299692,66.4524025 C28.2034908,66.4524025 33.2381006,64.5843943 37.2349281,61.4532957 C32.1232649,61.3584908 27.8119815,57.9782854 26.3235832,53.341037 C27.0410575,53.47154 27.7645791,53.5427413 28.5236037,53.5427413 C29.591037,53.5427413 30.6227721,53.406386 31.6012526,53.1395277 C26.2582341,52.0601951 22.2317556,47.3458932 22.2317556,41.688614 L22.2317556,41.5403593 C23.8091068,42.4179877 25.6059138,42.9398049 27.5213244,43.005154 C24.3902259,40.9118378 22.3265606,37.3359754 22.3265606,33.2856982 C22.3265606,31.1449795 22.9018275,29.140616 23.9039117,27.4150103 C29.6620431,34.4836345 38.2725154,39.1327823 47.9800719,39.6190965 C47.7783676,38.7650719 47.6777105,37.869692 47.6777105,36.9565606 C47.6777105,30.5106057 52.9079774,25.2801437 59.3599795,25.2801437 C62.716386,25.2801437 65.7526797,26.6973409 67.8873511,28.9685626 C70.5440349,28.4406982 73.0466119,27.4682649 75.3059343,26.1339733 C74.4341581,28.8618583 72.5840965,31.1508316 70.1704723,32.5976797 C72.5247947,32.318922 74.784117,31.6843532 76.8774333,30.7593224 C75.3119815,33.0956982 73.3253696,35.1535113 71.0424435,36.7901643 L71.0424435,36.7901643 Z" id="Shape"></path>
                        </g>
                    </g>
                </g>
                <g id="twitter2" transform="translate(114.000000, 25.000000)" sketch:type="MSShapeGroup">
                    <g id="Capa_1">
                        <g id="Group">
                            <path d="M52.0424435,11.7901643 L52.0779466,13.3023614 C52.0779466,28.7442505 40.3305236,46.5346099 18.8456982,46.5346099 C12.2514887,46.5346099 6.11374743,44.6014476 0.942782341,41.2863963 C1.85610883,41.3931006 2.78699179,41.4524025 3.7299692,41.4524025 C9.20349076,41.4524025 14.2381006,39.5843943 18.2349281,36.4532957 C13.1232649,36.3584908 8.81198152,32.9782854 7.32358316,28.341037 C8.04105749,28.47154 8.76457906,28.5427413 9.5236037,28.5427413 C10.591037,28.5427413 11.6227721,28.406386 12.6012526,28.1395277 C7.25823409,27.0601951 3.23175565,22.3458932 3.23175565,16.688614 L3.23175565,16.5403593 C4.80910678,17.4179877 6.60591376,17.9398049 8.52132444,18.005154 C5.39022587,15.9118378 3.32656057,12.3359754 3.32656057,8.28569815 C3.32656057,6.14497947 3.90182752,4.14061602 4.9039117,2.41501027 C10.6620431,9.4836345 19.2725154,14.1327823 28.9800719,14.6190965 C28.7783676,13.7650719 28.6777105,12.869692 28.6777105,11.9565606 C28.6777105,5.51060575 33.9079774,0.280143737 40.3599795,0.280143737 C43.716386,0.280143737 46.7526797,1.69734086 48.8873511,3.96856263 C51.5440349,3.44069815 54.0466119,2.46826489 56.3059343,1.13397331 C55.4341581,3.86185832 53.5840965,6.15083162 51.1704723,7.59767967 C53.5247947,7.31892197 55.784117,6.68435318 57.8774333,5.75932238 C56.3119815,8.09569815 54.3253696,10.1535113 52.0424435,11.7901643 Z" id="Shape"></path>
                        </g>
                    </g>
                </g>
            </g>
        </g>
    </g>
</svg>
